<svg width="404" height="31" viewBox="0 0 404 31" fill="none" xmlns="http://www.w3.org/2000/svg">
<path d="M9.16411 14.0772C5.22004 13.5685 0.0912344 10.4383 0.0912344 10.4383C0.0912344 10.4383 6.85718 10.9129 10.5374 10.1786C18.4361 8.60252 21.4942 5.5877 28.1017 0.917227C28.934 0.328899 31.6008 0.430912 32.451 0.993043C37.1821 4.12098 40.5461 11.6754 53.5654 12.6699C60.9517 13.2341 70.1385 10.3488 70.1385 10.3488C70.1385 10.3488 60.891 16.7133 53.932 16.5919C46.9731 16.4704 37.45 13.7008 29.7351 7.04018C29.7351 7.04018 18.28 15.253 9.16411 14.0772Z" fill="#3E8DE9"/>
<path d="M58.0147 25.9972C54.0706 25.4885 48.9418 22.3583 48.9418 22.3583C48.9418 22.3583 55.7078 22.8329 59.3879 22.0986C67.2867 20.5225 70.3447 17.5077 76.9523 12.8372C77.7846 12.2489 80.4513 12.3509 81.3016 12.9131C86.0327 16.041 89.3967 23.5954 102.416 24.5899C109.802 25.1542 118.989 22.2688 118.989 22.2688C118.989 22.2688 109.742 28.6334 102.783 28.5119C95.8237 28.3904 86.3006 25.6208 78.5856 18.9602C78.5856 18.9602 67.1306 27.173 58.0147 25.9972Z" fill="#3E8DE9"/>
<path d="M103.994 15.8172C100.05 15.3084 94.9213 12.1783 94.9213 12.1783C94.9213 12.1783 101.687 12.6529 105.367 11.9186C113.266 10.3425 116.324 7.32769 122.932 2.65722C123.764 2.06889 126.431 2.1709 127.281 2.73303C132.012 5.86098 135.376 13.4154 148.396 14.4099C155.782 14.9741 164.969 12.0888 164.969 12.0888C164.969 12.0888 155.721 18.4533 148.762 18.3319C141.803 18.2104 132.28 15.4408 124.565 8.78017C124.565 8.78017 113.11 16.993 103.994 15.8172Z" fill="#3E8DE9"/>
<path d="M152.845 27.7372C148.901 27.2285 143.772 24.0983 143.772 24.0983C143.772 24.0983 150.538 24.573 154.218 23.8386C162.117 22.2626 165.175 19.2477 171.782 14.5773C172.615 13.9889 175.281 14.0909 176.132 14.6531C180.863 17.781 184.227 25.3355 197.246 26.33C204.632 26.8942 213.819 24.0088 213.819 24.0088C213.819 24.0088 204.572 30.3734 197.613 30.2519C190.654 30.1304 181.131 27.3609 173.416 20.7002C173.416 20.7002 161.961 28.913 152.845 27.7372Z" fill="#3E8DE9"/>
<path d="M198.824 14.0772C194.88 13.5685 189.751 10.4383 189.751 10.4383C189.751 10.4383 196.517 10.9129 200.198 10.1786C208.096 8.60252 211.154 5.5877 217.762 0.917227C218.594 0.328899 221.261 0.430912 222.111 0.993043C226.842 4.12098 230.206 11.6754 243.226 12.6699C250.612 13.2341 259.799 10.3488 259.799 10.3488C259.799 10.3488 250.551 16.7133 243.592 16.5919C236.633 16.4704 227.11 13.7008 219.395 7.04018C219.395 7.04018 207.94 15.253 198.824 14.0772Z" fill="#3E8DE9"/>
<path d="M247.675 25.9972C243.731 25.4885 238.602 22.3583 238.602 22.3583C238.602 22.3583 245.368 22.8329 249.048 22.0986C256.947 20.5225 260.005 17.5077 266.612 12.8372C267.445 12.2489 270.112 12.3509 270.962 12.9131C275.693 16.041 279.057 23.5954 292.076 24.5899C299.462 25.1542 308.649 22.2688 308.649 22.2688C308.649 22.2688 299.402 28.6334 292.443 28.5119C285.484 28.3904 275.961 25.6208 268.246 18.9602C268.246 18.9602 256.791 27.173 247.675 25.9972Z" fill="#3E8DE9"/>
<path d="M293.653 15.8172C289.709 15.3084 284.58 12.1783 284.58 12.1783C284.58 12.1783 291.346 12.6529 295.027 11.9186C302.925 10.3425 305.983 7.32769 312.591 2.65722C313.423 2.06889 316.09 2.1709 316.94 2.73303C321.671 5.86098 325.035 13.4154 338.055 14.4099C345.441 14.9741 354.628 12.0888 354.628 12.0888C354.628 12.0888 345.38 18.4533 338.421 18.3319C331.462 18.2104 321.939 15.4408 314.224 8.78017C314.224 8.78017 302.769 16.993 293.653 15.8172Z" fill="#3E8DE9"/>
<path d="M342.505 27.7372C338.561 27.2285 333.432 24.0983 333.432 24.0983C333.432 24.0983 340.198 24.573 343.878 23.8386C351.777 22.2626 354.835 19.2477 361.442 14.5773C362.275 13.9889 364.942 14.0909 365.792 14.6531C370.523 17.781 373.887 25.3355 386.906 26.33C394.293 26.8942 403.479 24.0088 403.479 24.0088C403.479 24.0088 394.232 30.3734 387.273 30.2519C380.314 30.1304 370.791 27.3609 363.076 20.7002C363.076 20.7002 351.621 28.913 342.505 27.7372Z" fill="#3E8DE9"/>
</svg>
