<svg width="381" height="56" viewBox="0 0 381 56" fill="none" xmlns="http://www.w3.org/2000/svg">
<path d="M45.0687 6.40339C28.2493 4.15241 0 -6.10352e-05 0 -6.10352e-05C10.4508 5.36097 36.9399 11.2576 68.0146 15.079C99.0894 18.9004 277.644 18.32 327.005 26.1301C347.893 29.4351 367.547 36.9747 380.1 45.6503C362.402 23.5481 314.04 19.2945 299.12 17.4545C284.2 15.6145 60.3487 8.06188 57.4163 8.15917C54.4839 8.25646 59.4742 4.6476 58.754 3.51151C58.8568 2.9951 49.6991 7.02308 45.0687 6.40339Z" fill="#3E8DE9"/>
<path d="M44.6571 18.0742C43.3195 17.248 24.1807 10.9478 24.1807 10.9478C23.8672 10.8809 45.7217 14.4338 60.1945 17.1447C75.8042 20.0686 84.665 20.9879 100.324 24.8908C109.775 27.2463 115.28 28.1919 124.196 32.1205C130.436 34.87 133.928 36.5877 139.528 40.4863C142.725 42.7122 143.849 44.411 147.348 46.6832C148.48 47.0963 149.303 47.0963 150.538 46.6832C153.007 45.2373 155.11 42.9573 158.358 40.6929C163.667 36.991 166.204 34.6283 172.249 32.3271C177.462 30.3426 181.516 28.8064 187.889 28.1958C192.943 27.7116 196.519 27.5769 202.603 28.0925C207.158 28.4786 209.635 29.4938 213.922 31.0877C222.943 34.4421 232.027 40.7648 236.148 43.5848C237.944 44.2904 239.836 44.2097 241.704 43.5848C243.865 42.8618 244.95 41.3657 247.158 40.0732C253.331 36.4583 257.447 33.5665 263.827 32.7402C267.533 32.2602 270.618 32.3588 273.19 32.5336C275.763 32.7085 278.084 32.8706 282.04 34.0829L282.215 34.1365C285.597 35.1728 287.412 35.7287 291.3 37.9043C295.255 40.1171 294.913 39.7 303.854 46.2701C304.625 46.4481 305.071 46.4516 305.912 46.1668C306.117 46.2701 311.628 41.5566 316.407 38.524C318.663 37.0923 320.938 36.2655 323.713 35.5288C326.432 34.8069 327.059 34.5492 333.694 34.9091C340.328 35.2691 343.202 36.2868 349.334 38.524C355.816 41.4159 359.9 43.249 365.283 47.5095C360.228 45.7558 357.4 44.7762 352.421 43.0684C347.893 41.5191 344.601 40.4863 339.765 40.0732C333.804 39.564 330.092 39.7634 324.433 41.0027C321.003 41.8223 319.185 42.6552 316.098 44.8241C314.814 45.7267 309.101 51.2026 307.558 51.4342C306.014 51.6657 303.442 51.6508 301.796 51.021C300.149 50.3913 296.548 47.0963 290.992 44.6176C285.435 42.1388 283.45 41.3546 278.541 40.2798C278.232 40.1765 271.958 38.9214 267.943 39.7634C263.346 40.7273 257.967 43.2874 256.213 44.6176C255.184 45.0307 246.309 52.4924 243.145 53.4998C241.395 53.9129 240.161 53.7063 238.411 53.4998C236.468 53.2703 236.148 53.1899 233.678 52.0538C228.104 47.3902 225.234 45.3865 220.61 42.9651C213.51 38.9371 209.696 37.0585 203.427 36.0452C199.649 35.827 197.532 35.8548 193.754 36.0452C189.432 36.28 187.003 36.653 182.641 38.0076C171.802 41.7741 165.521 45.8913 154.139 54.7392C154.139 54.7392 152.596 55.5654 149.097 55.5654C145.599 55.5654 143.353 54.8637 141.38 52.5702C130.782 41.9323 122.853 38.6789 108.041 33.1533C87.9628 26.7742 76.3634 23.9163 54.9468 20.3464C54.9468 20.3464 53.0947 19.9333 52.5802 20.4497C51.8599 21.276 51.8471 21.3129 51.757 22.2055C51.6487 23.2783 51.757 25.9236 51.757 25.9236C50.728 25.3039 47.2296 19.6235 44.6571 18.0742Z" fill="#3E8DE9"/>
</svg>
