<svg width="162" height="39" viewBox="0 0 162 39" fill="none" xmlns="http://www.w3.org/2000/svg">
<path d="M12.4125 19.0678C7.07028 18.3787 0.123324 14.1389 0.123324 14.1389C0.123324 14.1389 9.28777 14.7818 14.2726 13.7872C24.9714 11.6524 29.1135 7.56881 38.0634 1.24267C39.1908 0.44578 42.8029 0.583956 43.9545 1.34536C50.3628 5.58215 54.9194 15.8146 72.554 17.1617C82.5587 17.9259 95.0021 14.0177 95.0021 14.0177C95.0021 14.0177 82.4764 22.6385 73.0505 22.4739C63.6247 22.3094 50.7256 18.558 40.2758 9.53619C40.2758 9.53619 24.7599 20.6604 12.4125 19.0678Z" fill="#3E8DE9"/>
<path d="M78.581 35.2134C73.2387 34.5243 66.2918 30.2845 66.2918 30.2845C66.2918 30.2845 75.4562 30.9274 80.441 29.9327C91.1398 27.798 95.282 23.7144 104.232 17.3882C105.359 16.5913 108.971 16.7295 110.123 17.4909C116.531 21.7277 121.088 31.9602 138.722 33.3072C148.727 34.0715 161.171 30.1633 161.171 30.1633C161.171 30.1633 148.645 38.784 139.219 38.6195C129.793 38.455 116.894 34.7036 106.444 25.6818C106.444 25.6818 90.9284 36.806 78.581 35.2134Z" fill="#3E8DE9"/>
</svg>
