<svg width="30" height="30" viewBox="0 0 30 30" fill="none" xmlns="http://www.w3.org/2000/svg">
<path d="M17.2548 4.92999H12.3248C7.6768 4.92999 5.35277 4.92999 3.90881 6.37396C2.86914 7.41362 2.57804 8.90952 2.49654 11.4006H27.0831C27.0016 8.90952 26.7105 7.41362 25.6709 6.37396C24.2269 4.92999 21.9029 4.92999 17.2548 4.92999Z" fill="#3F3F3F"/>
<path fill-rule="evenodd" clip-rule="evenodd" d="M17.2548 24.65H12.3248C7.6768 24.65 5.35277 24.65 3.90881 23.206C2.46484 21.7621 2.46484 19.438 2.46484 14.79C2.46484 14.2453 2.46484 13.7325 2.46717 13.2494H27.1125C27.1148 13.7325 27.1148 14.2453 27.1148 14.79C27.1148 19.438 27.1148 21.7621 25.6709 23.206C24.2269 24.65 21.9029 24.65 17.2548 24.65ZM19.775 15.0981C20.3084 15.0981 20.7975 15.098 21.1954 15.1515C21.6335 15.2104 22.0966 15.349 22.4775 15.7299C22.8584 16.1107 22.9969 16.5738 23.0558 17.0119C23.1093 17.4098 23.1093 17.8989 23.1092 18.4323V18.5426C23.1093 19.0761 23.1093 19.5652 23.0558 19.9631C22.9969 20.4012 22.8584 20.8643 22.4775 21.2451C22.0966 21.626 21.6335 21.7646 21.1954 21.8235C20.7975 21.877 20.3084 21.8769 19.775 21.8769L19.7198 21.8769L19.6647 21.8769C19.1312 21.8769 18.6422 21.877 18.2443 21.8235C17.8062 21.7646 17.3431 21.626 16.9622 21.2451C16.5813 20.8643 16.4427 20.4012 16.3838 19.9631C16.3303 19.5652 16.3304 19.0761 16.3305 18.5426L16.3305 18.4875L16.3305 18.4323C16.3304 17.8989 16.3303 17.4098 16.3838 17.0119C16.4427 16.5738 16.5813 16.1107 16.9622 15.7299C17.3431 15.349 17.8062 15.2104 18.2443 15.1515C18.6421 15.098 19.1312 15.0981 19.6647 15.0981H19.775ZM6.47047 16.6387C6.47047 16.1282 6.88433 15.7144 7.39484 15.7144H9.85984C10.3704 15.7144 10.7842 16.1282 10.7842 16.6387C10.7842 17.1493 10.3704 17.5631 9.85984 17.5631H7.39484C6.88433 17.5631 6.47047 17.1493 6.47047 16.6387ZM6.47047 20.3362C6.47047 19.8257 6.88433 19.4119 7.39484 19.4119H12.3248C12.8354 19.4119 13.2492 19.8257 13.2492 20.3362C13.2492 20.8468 12.8354 21.2606 12.3248 21.2606H7.39484C6.88433 21.2606 6.47047 20.8468 6.47047 20.3362Z" fill="#3F3F3F"/>
<path d="M18.2695 17.037L18.2725 17.0354C18.2749 17.0342 18.279 17.0322 18.2852 17.0296C18.312 17.0186 18.3716 16.9997 18.4906 16.9837C18.7503 16.9488 19.1127 16.9469 19.7198 16.9469C20.327 16.9469 20.6893 16.9488 20.9491 16.9837C21.0681 16.9997 21.1277 17.0186 21.1545 17.0296C21.1607 17.0322 21.1648 17.0342 21.1672 17.0354L21.1702 17.0371L21.1719 17.0401C21.1731 17.0425 21.1751 17.0466 21.1777 17.0528C21.1887 17.0797 21.2076 17.1393 21.2236 17.2583C21.2585 17.518 21.2605 17.8804 21.2605 18.4875C21.2605 19.0946 21.2585 19.457 21.2236 19.7167C21.2076 19.8357 21.1887 19.8953 21.1777 19.9222C21.1751 19.9284 21.1731 19.9325 21.1719 19.9349L21.1702 19.9379L21.1672 19.9395C21.1648 19.9408 21.1607 19.9428 21.1545 19.9453C21.1277 19.9564 21.0681 19.9752 20.9491 19.9912C20.6893 20.0262 20.327 20.0281 19.7198 20.0281C19.1127 20.0281 18.7503 20.0262 18.4906 19.9912C18.3716 19.9752 18.312 19.9564 18.2852 19.9453C18.279 19.9428 18.2749 19.9408 18.2725 19.9395L18.2695 19.9379L18.2678 19.9349C18.2665 19.9325 18.2646 19.9284 18.262 19.9222C18.2509 19.8953 18.2321 19.8357 18.2161 19.7167C18.1812 19.457 18.1792 19.0946 18.1792 18.4875C18.1792 17.8804 18.1812 17.518 18.2161 17.2583C18.2321 17.1393 18.2509 17.0797 18.262 17.0528C18.2646 17.0466 18.2665 17.0425 18.2678 17.0401L18.2695 17.037Z" fill="#3F3F3F"/>
</svg>
