<svg width="23" height="23" viewBox="0 0 23 23" fill="none" xmlns="http://www.w3.org/2000/svg">
<path fill-rule="evenodd" clip-rule="evenodd" d="M11.31 0C11.7458 0 12.0991 0.353279 12.0991 0.78907V2.89326C12.0991 3.32905 11.7458 3.68233 11.31 3.68233C10.8742 3.68233 10.5209 3.32905 10.5209 2.89326V0.78907C10.5209 0.353279 10.8742 0 11.31 0ZM2.54464 2.59455C2.83871 2.27293 3.33782 2.25058 3.65944 2.54464L5.99721 4.68206C6.31883 4.97612 6.34118 5.47523 6.04712 5.79686C5.75306 6.11848 5.25394 6.14083 4.93232 5.84677L2.59455 3.70935C2.27293 3.41529 2.25058 2.91618 2.54464 2.59455ZM20.0754 2.59455C20.3694 2.91618 20.3471 3.41529 20.0254 3.70935L17.6877 5.84677C17.3661 6.14083 16.8669 6.11848 16.5729 5.79686C16.2788 5.47523 16.3012 4.97612 16.6228 4.68206L18.9606 2.54464C19.2822 2.25058 19.7813 2.27293 20.0754 2.59455ZM11.31 6.8386C8.84052 6.8386 6.8386 8.84052 6.8386 11.31C6.8386 13.7795 8.84052 15.7814 11.31 15.7814C13.7795 15.7814 15.7814 13.7795 15.7814 11.31C15.7814 8.84052 13.7795 6.8386 11.31 6.8386ZM5.26047 11.31C5.26047 7.96893 7.96893 5.26047 11.31 5.26047C14.6511 5.26047 17.3595 7.96893 17.3595 11.31C17.3595 14.6511 14.6511 17.3595 11.31 17.3595C7.96893 17.3595 5.26047 14.6511 5.26047 11.31ZM0 11.31C0 10.8742 0.353279 10.5209 0.78907 10.5209H2.89326C3.32905 10.5209 3.68233 10.8742 3.68233 11.31C3.68233 11.7458 3.32905 12.0991 2.89326 12.0991H0.78907C0.353279 12.0991 0 11.7458 0 11.31ZM18.9377 11.31C18.9377 10.8742 19.291 10.5209 19.7267 10.5209H21.8309C22.2667 10.5209 22.62 10.8742 22.62 11.31C22.62 11.7458 22.2667 12.0991 21.8309 12.0991H19.7267C19.291 12.0991 18.9377 11.7458 18.9377 11.31ZM16.5973 16.597C16.9055 16.2888 17.4051 16.2889 17.7132 16.597L20.051 18.9351C20.3591 19.2432 20.3591 19.7429 20.0509 20.051C19.7428 20.3591 19.2431 20.3591 18.935 20.0509L16.5972 17.7129C16.2891 17.4047 16.2891 16.9051 16.5973 16.597ZM6.02288 16.5971C6.33103 16.9053 6.33103 17.4049 6.02288 17.713L3.6849 20.051C3.37675 20.3592 2.87713 20.3592 2.56898 20.051C2.26083 19.7429 2.26083 19.2433 2.56898 18.9351L4.90697 16.5971C5.21512 16.289 5.71473 16.289 6.02288 16.5971ZM11.31 18.9377C11.7458 18.9377 12.0991 19.291 12.0991 19.7267V21.8309C12.0991 22.2667 11.7458 22.62 11.31 22.62C10.8742 22.62 10.5209 22.2667 10.5209 21.8309V19.7267C10.5209 19.291 10.8742 18.9377 11.31 18.9377Z" fill="white"/>
<path d="M6.8386 11.31C6.8386 8.84052 8.84052 6.8386 11.31 6.8386C13.7795 6.8386 15.7814 8.84052 15.7814 11.31C15.7814 13.7795 13.7795 15.7814 11.31 15.7814C8.84052 15.7814 6.8386 13.7795 6.8386 11.31Z" fill="white"/>
</svg>
