<svg width="31" height="31" viewBox="0 0 31 31" fill="none" xmlns="http://www.w3.org/2000/svg">
<path fill-rule="evenodd" clip-rule="evenodd" d="M27.9121 15.2249C27.9121 22.232 22.2317 27.9124 15.2246 27.9124C8.2175 27.9124 2.53711 22.232 2.53711 15.2249C2.53711 8.21774 8.2175 2.53735 15.2246 2.53735C22.2317 2.53735 27.9121 8.21774 27.9121 15.2249ZM15.2246 22.5202C15.7501 22.5202 16.1762 22.0941 16.1762 21.5686V13.9561C16.1762 13.4306 15.7501 13.0045 15.2246 13.0045C14.6991 13.0045 14.273 13.4306 14.273 13.9561V21.5686C14.273 22.0941 14.6991 22.5202 15.2246 22.5202ZM15.2246 8.8811C15.9253 8.8811 16.4934 9.44914 16.4934 10.1499C16.4934 10.8506 15.9253 11.4186 15.2246 11.4186C14.5239 11.4186 13.9559 10.8506 13.9559 10.1499C13.9559 9.44914 14.5239 8.8811 15.2246 8.8811Z" fill="#3F3F3F"/>
</svg>
