<svg width="83" height="51" viewBox="0 0 83 51" fill="none" xmlns="http://www.w3.org/2000/svg">
<path d="M11.982 43.9343C9.81053 43.9343 7.86199 43.5739 6.13643 42.8531C4.41086 42.1132 3.0149 41.0983 1.94853 39.8084C0.882172 38.4995 0.232661 37.0008 0 35.3125H3.8389C4.05217 36.4128 4.5175 37.3708 5.23487 38.1865C5.95224 39.0022 6.88288 39.6377 8.0268 40.0929C9.17071 40.5293 10.4891 40.7474 11.982 40.7474C13.7464 40.7474 15.2684 40.4249 16.548 39.7799C17.8276 39.135 18.8164 38.2244 19.5144 37.0483C20.2124 35.8721 20.5614 34.4778 20.5614 32.8654C20.5614 31.253 20.2124 29.8587 19.5144 28.6825C18.8164 27.5064 17.8276 26.5958 16.548 25.9509C15.2684 25.3059 13.7464 24.9834 11.982 24.9834C10.5085 24.9834 9.19979 25.211 8.05588 25.6663C6.91196 26.1026 5.98132 26.7286 5.26395 27.5443C4.54658 28.3411 4.07156 29.299 3.8389 30.4183H0C0.232661 28.711 0.882172 27.2124 1.94853 25.9224C3.0149 24.6324 4.41086 23.627 6.13643 22.9062C7.86199 22.1664 9.81053 21.7964 11.982 21.7964C14.4637 21.7964 16.6255 22.2612 18.4674 23.1907C20.3287 24.1203 21.7732 25.4197 22.8008 27.0891C23.8477 28.7394 24.3712 30.6649 24.3712 32.8654C24.3712 35.0659 23.8477 37.0008 22.8008 38.6702C21.7732 40.3206 20.3287 41.6105 18.4674 42.5401C16.6255 43.4696 14.4637 43.9343 11.982 43.9343ZM22.3063 34.2028H8.25946V31.528H22.3063V34.2028Z" fill="white"/>
<path d="M34.0239 23.9306H37.8628V43.536H34.0239V23.9306ZM25.0083 22.1948H46.8784V25.4956H25.0083V22.1948Z" fill="white"/>
<path fill-rule="evenodd" clip-rule="evenodd" d="M16.8194 21.041L17.1021 48.4288L27.5048 48.5407L30.1239 48.5688L32.6758 48.5963L42.825 48.7054H42.8253C42.8242 48.6014 42.8231 48.4961 42.8219 48.3895C42.7259 39.4496 42.5071 21.8553 42.373 20.5431C42.3716 20.5293 42.3703 20.5154 42.3691 20.5016C42.3224 19.9822 42.3927 19.4309 42.5155 18.9167C42.6254 18.4562 42.7776 18.0254 42.9256 17.6738C43.0319 17.4214 43.1361 17.2099 43.2211 17.0574C35.702 17.0574 20.3698 17.2123 19.1939 17.832C18.018 18.4516 17.1209 20.2295 16.8194 21.041ZM37.0023 45.275H20.6638C20.5675 45.1453 20.3633 44.86 20.1006 44.4841C20.0993 44.4822 20.0979 44.4803 20.0966 44.4783C20.0319 44.3858 19.9637 44.2878 19.8927 44.1854C19.5854 43.742 19.2259 43.2148 18.8732 42.6824C18.0839 41.4908 17.329 40.2728 17.2715 39.9081C17.267 39.8795 17.2572 39.4285 17.2441 38.6878C17.1948 35.9016 17.0987 29.0341 17.0612 25.1067C17.0515 24.0902 17.0455 23.254 17.0455 22.7562C17.0455 20.5431 41.4154 21.265 41.9773 21.705C42.2476 21.9166 42.2556 22.2295 42.3089 24.3375C42.3113 24.4337 42.314 24.5514 42.3167 24.6552C42.4124 28.4004 42.5078 35.8605 42.535 38.3782C42.54 38.8361 42.5426 39.108 42.5426 39.1335C42.5426 39.8389 39.9108 42.6779 37.9068 44.4152C37.3956 44.8585 37.9634 44.3661 37.0023 45.275ZM37.0588 19.4365C36.3238 19.7685 21.851 19.9898 21.2857 19.8791C20.7203 19.7685 20.6072 18.9939 20.6072 18.9939C20.6072 18.9939 26.015 18.7265 29.4832 18.6619C32.9267 18.5977 38.3026 18.6619 38.3026 18.6619C38.3026 18.6619 37.7937 19.1045 37.0588 19.4365Z" fill="#3B6FA9"/>
<path d="M41.6381 40.224C40.3378 41.6073 39.4594 42.5999 37.9634 44.0417L37.9068 44.4152C39.6905 42.851 40.4747 41.9135 41.9208 40.2794L41.6381 40.224Z" fill="white"/>
<path d="M20.155 44.1524C19.2371 42.8719 18.6141 41.8255 17.8371 40.556L17.4113 40.2794C17.9526 41.2276 18.3834 41.9351 18.8732 42.6824C19.2259 43.2148 19.5854 43.742 19.8927 44.1854C19.9588 44.2805 20.0267 44.3781 20.0966 44.4783L20.155 44.1524Z" fill="white"/>
<path fill-rule="evenodd" clip-rule="evenodd" d="M20.6638 45.275H37.0023C37.9634 44.3661 37.3956 44.8585 37.9068 44.4152L37.9634 44.0417C39.4594 42.5999 40.3378 41.6073 41.6381 40.224L41.9208 40.2794C42.2389 39.8707 42.5426 39.3235 42.5426 39.1335C42.5426 39.108 42.54 38.8361 42.535 38.3782C41.7994 40.0108 18.5771 40.7349 17.2441 38.6878C17.2572 39.4285 17.267 39.8795 17.2715 39.9081C17.2846 39.9911 17.3338 40.1183 17.4113 40.2794L17.8371 40.556C18.6141 41.8255 19.2371 42.8719 20.155 44.1524L20.0966 44.4783C20.0979 44.4803 20.0993 44.4822 20.1006 44.4841C20.3633 44.86 20.5675 45.1453 20.6638 45.275ZM26.9956 43.1725C26.826 42.3426 29.992 41.7732 29.992 43.1725C29.992 44.3898 26.9956 44.2791 26.9956 43.1725Z" fill="#111111"/>
<path d="M21.2857 19.8791C21.851 19.9898 36.3238 19.7685 37.0588 19.4365C37.7937 19.1045 38.3026 18.6619 38.3026 18.6619C38.3026 18.6619 32.9267 18.5977 29.4832 18.6619C26.015 18.7265 20.6072 18.9939 20.6072 18.9939C20.6072 18.9939 20.7203 19.7685 21.2857 19.8791Z" fill="#111111"/>
<path d="M43.8429 22.4242L44.1822 44.9984L48.818 44.2238C48.818 44.2238 50.2879 39.9635 51.5882 39.1889C52.4687 38.6643 53.1146 38.3798 54.2453 38.8961C55.376 39.4125 56.1675 44.1547 56.1675 44.1547L66.2306 42.5639C66.2306 42.5639 68.3673 41.0701 68.3789 41.0147C69.2153 37.031 71.2982 37.529 71.6579 38.6356C71.6922 38.741 76.9157 34.8179 76.9157 34.8179L76.8026 24.5267L43.8429 22.4242Z" fill="#111111"/>
<path d="M68.0963 22.5349C69.0008 22.9222 76.5765 23.5862 76.5765 23.5862C76.0676 22.8115 74.2359 21.4781 73.354 21.2623C72.6756 21.0964 66.3625 20.2111 63.8562 19.7685C63.8562 19.7685 67.1917 22.1476 68.0963 22.5349Z" fill="#111111"/>
<path d="M44.5213 18.3299C43.6733 19.7131 44.069 20.7091 44.069 20.7091L66.061 22.4796C64.9303 21.705 62.4428 19.5697 61.1425 19.3812C59.5726 19.1536 45.3693 16.9467 44.5213 18.3299Z" fill="#111111"/>
<path fill-rule="evenodd" clip-rule="evenodd" d="M50.514 47.5893C49.4964 41.1254 54.9237 33.7113 55.0933 46.7593C55.1005 47.3142 63.4604 45.441 68.6616 44.9431C67.757 38.8016 72.3364 34.0433 71.9406 44.4451C71.9343 44.6112 73.467 44.4355 76.3503 43.9376L77.9898 42.9416L77.6506 23.0786C77.1795 22.4515 75.8867 21.0757 74.4847 20.5888C72.7321 19.9802 48.4861 15.3422 43.2284 17.0574C43.1152 17.2692 43.0145 17.4734 42.9256 17.6738C42.7776 18.0254 42.6254 18.4562 42.5155 18.9167C42.4119 19.4014 42.3668 19.9117 42.3691 20.5016C42.3703 20.5154 42.3716 20.5293 42.373 20.5431C42.3894 20.7032 42.407 21.1055 42.4255 21.705C42.5794 23.6229 42.7927 45.3393 42.8219 48.3895C42.8231 48.4961 42.8242 48.6014 42.8253 48.7054H42.825C42.8252 48.7314 42.8253 48.6893 42.8253 48.6893L50.514 47.5893ZM44.069 20.7091C44.069 20.7091 43.6733 19.7131 44.5213 18.3299C45.3693 16.9467 59.5726 19.1536 61.1425 19.3812C62.4428 19.5697 64.9303 21.705 66.061 22.4796L44.069 20.7091ZM76.5765 23.5862C76.5765 23.5862 69.0008 22.9222 68.0963 22.5349C67.1917 22.1476 63.8562 19.7685 63.8562 19.7685C66.3625 20.2111 72.6756 21.0964 73.354 21.2623C74.2359 21.4781 76.0676 22.8115 76.5765 23.5862ZM44.1822 44.9984L43.8429 22.4242L76.8026 24.5267L76.9157 34.8179C76.9157 34.8179 71.6922 38.741 71.6579 38.6356C71.2982 37.529 69.2153 37.031 68.3789 41.0147C68.3673 41.0701 66.2306 42.5639 66.2306 42.5639L56.1675 44.1547C56.1675 44.1547 55.376 39.4125 54.2453 38.8961C53.1146 38.3798 52.4687 38.6643 51.5882 39.1889C50.2879 39.9635 48.818 44.2238 48.818 44.2238L44.1822 44.9984Z" fill="#3B6FA9"/>
<path fill-rule="evenodd" clip-rule="evenodd" d="M42.3089 24.3375C42.3113 24.4337 42.314 24.5514 42.3167 24.6552C42.4124 28.4004 42.5078 35.8605 42.535 38.3782C41.7994 40.0108 18.5771 40.7349 17.2441 38.6878C17.1948 35.9016 17.0987 29.0341 17.0612 25.1067C20.6074 23.9752 39.5474 23.5119 42.3167 24.6552C42.3167 24.6552 42.3147 22.6242 42.0913 21.8342C41.8679 21.0442 17.0489 20.778 17.0542 22.6848C17.0594 24.5916 17.0612 25.1067 17.0612 25.1067C17.0515 24.0902 17.0455 23.254 17.0455 22.7562C17.0455 20.5431 41.4154 21.265 41.9773 21.705C42.2476 21.9166 42.2556 22.2295 42.3089 24.3375Z" fill="#27282A"/>
<path d="M17.0542 22.6848C17.0594 24.5916 17.0612 25.1067 17.0612 25.1067C20.6074 23.9752 39.5474 23.5119 42.3167 24.6552C42.3167 24.6552 42.3147 22.6242 42.0913 21.8342C41.8679 21.0442 17.0489 20.778 17.0542 22.6848Z" fill="black"/>
<path d="M51.1608 47.3055C51.3834 48.6675 52.2618 49.9179 53.0748 49.9885C53.9792 50.067 54.8028 48.6854 54.5529 44.3731C54.0782 36.1844 50.2563 41.7727 51.1608 47.3055Z" fill="#151515"/>
<path d="M69.1139 44.9575C68.6616 40.0188 71.2057 35.9798 71.5449 42.4124C71.9442 49.9841 69.3071 47.0672 69.1139 44.9575Z" fill="#151515"/>
<path d="M69.7363 0.982395C60.1249 3.40692 52.0405 9.21644 41.5816 17.0574L42.3731 17.0574C49.9487 11.6905 57.1187 5.12777 70.1836 1.22974L70.2777 0.0349986L69.8136 0L69.7363 0.982395Z" fill="black"/>
<path d="M47.1785 16.0061C55.3195 9.03468 63.456 5.0685 72.5625 1.47017V0.0349986H73.0473V1.67595C61.1381 6.62077 55.3195 10.0138 47.1785 16.6701H46.2174L47.1785 16.0061Z" fill="black"/>
<path d="M32.6758 48.5963L30.1239 48.5688C28.8176 48.5596 27.4998 48.5503 27.5048 48.5407C27.8997 49.9713 30.8643 52.0018 32.6758 48.5963Z" fill="#151515"/>
<path d="M47.7536 43.9343C45.5821 43.9343 43.6336 43.5739 41.908 42.8531C40.1824 42.1132 38.7865 41.0983 37.7201 39.8084C36.6538 38.4995 36.0042 37.0008 35.7716 35.3125H39.6105C39.8238 36.4128 40.2891 37.3708 41.0065 38.1865C41.7238 39.0022 42.6545 39.6377 43.7984 40.0929C44.9423 40.5293 46.2607 40.7474 47.7536 40.7474C49.518 40.7474 51.0399 40.4249 52.3196 39.7799C53.5992 39.135 54.588 38.2244 55.286 37.0483C55.984 35.8721 56.333 34.4778 56.333 32.8654C56.333 31.253 55.984 29.8587 55.286 28.6825C54.588 27.5064 53.5992 26.5958 52.3196 25.9509C51.0399 25.3059 49.518 24.9834 47.7536 24.9834C46.2801 24.9834 44.9714 25.211 43.8275 25.6663C42.6835 26.1026 41.7529 26.7286 41.0355 27.5443C40.3182 28.3411 39.8432 29.299 39.6105 30.4183H35.7716C36.0042 28.711 36.6538 27.2124 37.7201 25.9224C38.7865 24.6324 40.1824 23.627 41.908 22.9062C43.6336 22.1664 45.5821 21.7964 47.7536 21.7964C50.2353 21.7964 52.3971 22.2612 54.239 23.1907C56.1003 24.1203 57.5448 25.4197 58.5723 27.0891C59.6193 28.7394 60.1428 30.6649 60.1428 32.8654C60.1428 35.0659 59.6193 37.0008 58.5723 38.6702C57.5448 40.3206 56.1003 41.6105 54.239 42.5401C52.3971 43.4696 50.2353 43.9343 47.7536 43.9343ZM58.0779 34.2028H44.031V31.528H58.0779V34.2028Z" fill="white"/>
<path d="M69.7955 23.9306H73.6344V43.536H69.7955V23.9306ZM60.7799 22.1948H82.65V25.4956H60.7799V22.1948Z" fill="white"/>
<path d="M12.5447 6.07038V15.1759H10.9812V6.55601L11.49 6.58029L7.15936 15.1759H5.40975L1.07916 6.59243L1.58791 6.56815V15.1759H0.0244294V6.07038H2.53096L6.70024 14.4839H5.88128L10.0381 6.07038H12.5447Z" fill="white"/>
<path d="M16.7854 15.1759L18.3117 12.6264H18.3365L22.2328 6.07038H24.0196L18.5722 15.1759H16.7854ZM18.3489 13.7676L13.7329 6.07038H15.5445L19.4408 12.5657L18.3489 13.7676Z" fill="white"/>
<path d="M34.302 6.07038V15.1759H32.6765V6.7624L33.421 7.49084H26.0379L26.7824 6.7624V15.1759H25.1445V6.07038H34.302Z" fill="white"/>
</svg>
