<svg width="83" height="51" viewBox="0 0 83 51" fill="none" xmlns="http://www.w3.org/2000/svg">
<path d="M11.8393 43.9343C9.69367 43.9343 7.76835 43.5739 6.06333 42.8531C4.35832 42.1132 2.97898 41.0983 1.92532 39.8084C0.871664 38.4995 0.229889 37.0008 0 35.3125H3.79318C4.00391 36.4128 4.46369 37.3708 5.17251 38.1865C5.88134 39.0022 6.8009 39.6377 7.93119 40.0929C9.06148 40.5293 10.3642 40.7474 11.8393 40.7474C13.5826 40.7474 15.0865 40.4249 16.3509 39.7799C17.6153 39.135 18.5923 38.2244 19.282 37.0483C19.9716 35.8721 20.3165 34.4778 20.3165 32.8654C20.3165 31.253 19.9716 29.8587 19.282 28.6825C18.5923 27.5064 17.6153 26.5958 16.3509 25.9509C15.0865 25.3059 13.5826 24.9834 11.8393 24.9834C10.3833 24.9834 9.09021 25.211 7.95992 25.6663C6.82963 26.1026 5.91007 26.7286 5.20125 27.5443C4.49242 28.3411 4.02307 29.299 3.79318 30.4183H0C0.229889 28.711 0.871664 27.2124 1.92532 25.9224C2.97898 24.6324 4.35832 23.627 6.06333 22.9062C7.76835 22.1664 9.69367 21.7964 11.8393 21.7964C14.2915 21.7964 16.4275 22.2612 18.2475 23.1907C20.0866 24.1203 21.5138 25.4197 22.5292 27.0891C23.5637 28.7394 24.0809 30.6649 24.0809 32.8654C24.0809 35.0659 23.5637 37.0008 22.5292 38.6702C21.5138 40.3206 20.0866 41.6105 18.2475 42.5401C16.4275 43.4696 14.2915 43.9343 11.8393 43.9343ZM22.0406 34.2028H8.16108V31.528H22.0406V34.2028Z" fill="black"/>
<path d="M33.6186 23.9306H37.4118V43.536H33.6186V23.9306ZM24.7104 22.1948H46.32V25.4956H24.7104V22.1948Z" fill="black"/>
<path fill-rule="evenodd" clip-rule="evenodd" d="M16.6191 21.041L16.8984 48.4288L27.1772 48.5407L29.7651 48.5688L32.2866 48.5963L42.3152 48.7054C42.3141 48.6014 42.313 48.4961 42.3119 48.3895C42.2169 39.4496 42.0008 21.8553 41.8683 20.5431C41.8669 20.5293 41.8656 20.5154 41.8644 20.5016C41.8183 19.9822 41.8877 19.4309 42.0091 18.9167C42.1177 18.4562 42.268 18.0254 42.4143 17.6738C42.5193 17.4214 42.6223 17.2099 42.7062 17.0574C35.2767 17.0574 20.1272 17.2123 18.9653 17.832C17.8033 18.4516 16.917 20.2295 16.6191 21.041ZM36.5615 45.275H20.4176C20.3225 45.1453 20.1209 44.8602 19.8613 44.4844C19.86 44.4824 19.8585 44.4803 19.8572 44.4783C19.7933 44.3858 19.7259 44.2878 19.6558 44.1854C19.3522 43.742 18.9969 43.2148 18.6484 42.6824C17.8685 41.4908 17.1225 40.2728 17.0658 39.9081C17.0614 39.8795 17.0517 39.4285 17.0387 38.6878C16.99 35.9016 16.895 29.0341 16.858 25.1067C16.8484 24.0902 16.8425 23.254 16.8425 22.7562C16.8425 20.5431 40.9221 21.265 41.4773 21.705C41.7444 21.9166 41.7522 22.2295 41.8049 24.3375C41.8073 24.4337 41.81 24.5514 41.8126 24.6552C41.9072 28.4004 42.0015 35.8605 42.0284 38.3782C42.0333 38.8361 42.0359 39.108 42.0359 39.1335C42.0359 39.8389 39.4354 42.6779 37.4553 44.4152C36.9501 44.8585 37.5112 44.3661 36.5615 45.275ZM36.6174 19.4365C35.8912 19.7685 21.5907 19.9898 21.0321 19.8791C20.4735 19.7685 20.3618 18.9939 20.3618 18.9939C20.3618 18.9939 25.7051 18.7265 29.132 18.6619C32.5345 18.5977 37.8463 18.6619 37.8463 18.6619C37.8463 18.6619 37.3436 19.1045 36.6174 19.4365Z" fill="#3B6FA9"/>
<path d="M41.1421 40.224C39.8573 41.6073 38.9894 42.5999 37.5112 44.0417L37.4553 44.4152C39.2177 42.851 39.9926 41.9135 41.4214 40.2794L41.1421 40.224Z" fill="black"/>
<path d="M19.9149 44.1524C19.0079 42.8719 18.3924 41.8255 17.6246 40.556L17.2039 40.2794C17.7387 41.2276 18.1644 41.9351 18.6484 42.6824C18.9969 43.2148 19.3522 43.742 19.6558 44.1854C19.721 44.2805 19.7881 44.3781 19.8572 44.4783L19.9149 44.1524Z" fill="black"/>
<path fill-rule="evenodd" clip-rule="evenodd" d="M20.4176 45.275H36.5615C37.5112 44.3661 36.9501 44.8585 37.4553 44.4152L37.5112 44.0417C38.9894 42.5999 39.8573 41.6073 41.1421 40.224L41.4214 40.2794C41.7358 39.8707 42.0359 39.3235 42.0359 39.1335C42.0359 39.108 42.0333 38.8361 42.0284 38.3782C41.3015 40.0108 18.3558 40.7349 17.0387 38.6878C17.0517 39.4285 17.0614 39.8795 17.0658 39.9081C17.0787 39.9911 17.1273 40.1183 17.2039 40.2794L17.6246 40.556C18.3924 41.8255 19.0079 42.8719 19.9149 44.1524L19.8572 44.4783C19.8585 44.4803 19.86 44.4824 19.8613 44.4844C20.1209 44.8602 20.3225 45.1453 20.4176 45.275ZM26.6741 43.1725C26.5065 42.3426 29.6347 41.7732 29.6347 43.1725C29.6347 44.3898 26.6741 44.2791 26.6741 43.1725Z" fill="#111111"/>
<path d="M21.0321 19.8791C21.5907 19.9898 35.8912 19.7685 36.6174 19.4365C37.3436 19.1045 37.8463 18.6619 37.8463 18.6619C37.8463 18.6619 32.5345 18.5977 29.132 18.6619C25.7051 18.7265 20.3618 18.9939 20.3618 18.9939C20.3618 18.9939 20.4735 19.7685 21.0321 19.8791Z" fill="#111111"/>
<path d="M43.3207 22.4242L43.6559 44.9984L48.2365 44.2238C48.2365 44.2238 49.6889 39.9635 50.9737 39.1889C51.8437 38.6643 52.4819 38.3798 53.5992 38.8961C54.7164 39.4125 55.4984 44.1547 55.4984 44.1547L65.4417 42.5639C65.4417 42.5639 67.553 41.0701 67.5644 41.0147C68.3909 37.031 70.4489 37.529 70.8044 38.6356C70.8383 38.741 75.9995 34.8179 75.9995 34.8179L75.8878 24.5267L43.3207 22.4242Z" fill="#111111"/>
<path d="M67.2851 22.5349C68.1789 22.9222 75.6643 23.5862 75.6643 23.5862C75.1616 22.8115 73.3516 21.4781 72.4802 21.2623C71.8099 21.0964 65.5721 20.2111 63.0956 19.7685C63.0956 19.7685 66.3914 22.1476 67.2851 22.5349Z" fill="#111111"/>
<path d="M43.991 18.3299C43.1531 19.7131 43.5441 20.7091 43.5441 20.7091L65.2741 22.4796C64.1569 21.705 61.699 19.5697 60.4142 19.3812C58.863 19.1536 44.8289 16.9467 43.991 18.3299Z" fill="#111111"/>
<path fill-rule="evenodd" clip-rule="evenodd" d="M49.9123 47.5893C48.9068 41.1254 54.2695 33.7113 54.4371 46.7593C54.4442 47.3142 62.7045 45.441 67.8438 44.9431C66.95 38.8016 71.4747 34.0433 71.0837 44.4451C71.0775 44.6112 72.592 44.4355 75.4409 43.9376L77.0609 42.9416L76.7665 25.4956L76.7257 23.0786C76.5594 22.8546 76.2896 22.5352 75.9483 22.1948C75.334 21.5822 74.488 20.9018 73.5975 20.5888C71.8658 19.9802 47.9086 15.3422 42.7135 17.0574C42.6016 17.2692 42.5022 17.4734 42.4143 17.6738C42.268 18.0254 42.1177 18.4562 42.0091 18.9167C41.9067 19.4014 41.8621 19.9117 41.8644 20.5016C41.8656 20.5154 41.8669 20.5293 41.8683 20.5431C41.8845 20.7032 41.9019 21.1055 41.9202 21.705C42.0722 23.6229 42.2829 45.3393 42.3119 48.3895C42.313 48.4961 42.3141 48.6014 42.3152 48.7054C42.3155 48.7314 42.3152 48.6893 42.3152 48.6893L49.9123 47.5893ZM43.5441 20.7091C43.5441 20.7091 43.1531 19.7131 43.991 18.3299C44.8289 16.9467 58.863 19.1536 60.4142 19.3812C61.699 19.5697 64.1569 21.705 65.2741 22.4796L43.5441 20.7091ZM75.6643 23.5862C75.6643 23.5862 68.1789 22.9222 67.2851 22.5349C66.3914 22.1476 63.0956 19.7685 63.0956 19.7685C65.5721 20.2111 71.8099 21.0964 72.4802 21.2623C73.3516 21.4781 75.1616 22.8115 75.6643 23.5862ZM43.6559 44.9984L43.3207 22.4242L75.8878 24.5267L75.9995 34.8179C75.9995 34.8179 70.8383 38.741 70.8044 38.6356C70.4489 37.529 68.3909 37.031 67.5644 41.0147C67.553 41.0701 65.4417 42.5639 65.4417 42.5639L55.4984 44.1547C55.4984 44.1547 54.7164 39.4125 53.5992 38.8961C52.4819 38.3798 51.8437 38.6643 50.9737 39.1889C49.6889 39.9635 48.2365 44.2238 48.2365 44.2238L43.6559 44.9984Z" fill="#3B6FA9"/>
<path fill-rule="evenodd" clip-rule="evenodd" d="M41.8049 24.3375C41.8073 24.4337 41.81 24.5514 41.8126 24.6552C41.9072 28.4004 42.0015 35.8605 42.0284 38.3782C41.3015 40.0108 18.3558 40.7349 17.0387 38.6878C16.99 35.9016 16.895 29.0341 16.858 25.1067C20.362 23.9752 39.0763 23.5119 41.8126 24.6552C41.8126 24.6552 41.8107 22.6242 41.5899 21.8342C41.3692 21.0442 16.8459 20.778 16.851 22.6848C16.8562 24.5916 16.858 25.1067 16.858 25.1067C16.8484 24.0902 16.8425 23.254 16.8425 22.7562C16.8425 20.5431 40.9221 21.265 41.4773 21.705C41.7444 21.9166 41.7522 22.2295 41.8049 24.3375Z" fill="#27282A"/>
<path d="M16.851 22.6848C16.8562 24.5916 16.858 25.1067 16.858 25.1067C20.362 23.9752 39.0763 23.5119 41.8126 24.6552C41.8126 24.6552 41.8107 22.6242 41.5899 21.8342C41.3692 21.0442 16.8459 20.778 16.851 22.6848Z" fill="black"/>
<path d="M50.5514 47.3055C50.7714 48.6675 51.6393 49.9179 52.4426 49.9885C53.3363 50.067 54.1501 48.6854 53.9031 44.3731C53.434 36.1844 49.6576 41.7727 50.5514 47.3055Z" fill="#151515"/>
<path d="M68.2906 44.9575C67.8438 40.0188 70.3575 35.9798 70.6927 42.4124C71.0872 49.9841 68.4815 47.0672 68.2906 44.9575Z" fill="#151515"/>
<path d="M68.9056 0.982395C59.4087 3.40692 51.4206 9.21644 41.0863 17.0574L41.8683 17.0574C49.3537 11.6905 56.4383 5.12777 69.3476 1.22974L69.4406 0.0349986L68.9821 0L68.9056 0.982395Z" fill="black"/>
<path d="M46.6165 16.0061C54.6605 9.03468 62.7002 5.0685 71.6982 1.47017V0.0349986H72.1773V1.67595C60.4099 6.62077 54.6605 10.0138 46.6165 16.6701H45.6669L46.6165 16.0061Z" fill="black"/>
<path d="M32.2866 48.5963L29.7651 48.5688C28.4743 48.5596 27.1722 48.5503 27.1772 48.5407C27.5674 49.9713 30.4966 52.0018 32.2866 48.5963Z" fill="#151515"/>
<path d="M47.1848 43.9343C45.0392 43.9343 43.1138 43.5739 41.4088 42.8531C39.7038 42.1132 38.3245 41.0983 37.2708 39.8084C36.2172 38.4995 35.5754 37.0008 35.3455 35.3125H39.1387C39.3494 36.4128 39.8092 37.3708 40.518 38.1865C41.2268 39.0022 42.1464 39.6377 43.2767 40.0929C44.407 40.5293 45.7097 40.7474 47.1848 40.7474C48.9281 40.7474 50.432 40.4249 51.6964 39.7799C52.9608 39.135 53.9378 38.2244 54.6275 37.0483C55.3171 35.8721 55.662 34.4778 55.662 32.8654C55.662 31.253 55.3171 29.8587 54.6275 28.6825C53.9378 27.5064 52.9608 26.5958 51.6964 25.9509C50.432 25.3059 48.9281 24.9834 47.1848 24.9834C45.7288 24.9834 44.4357 25.211 43.3054 25.6663C42.1751 26.1026 41.2556 26.7286 40.5467 27.5443C39.8379 28.3411 39.3686 29.299 39.1387 30.4183H35.3455C35.5754 28.711 36.2172 27.2124 37.2708 25.9224C38.3245 24.6324 39.7038 23.627 41.4088 22.9062C43.1138 22.1664 45.0392 21.7964 47.1848 21.7964C49.637 21.7964 51.773 22.2612 53.593 23.1907C55.4321 24.1203 56.8593 25.4197 57.8747 27.0891C58.9092 28.7394 59.4264 30.6649 59.4264 32.8654C59.4264 35.0659 58.9092 37.0008 57.8747 38.6702C56.8593 40.3206 55.4321 41.6105 53.593 42.5401C51.773 43.4696 49.637 43.9343 47.1848 43.9343ZM57.3862 34.2028H43.5066V31.528H57.3862V34.2028Z" fill="white"/>
<path d="M12.3953 6.07038V15.1759H10.8504V6.55601L11.3531 6.58029L7.07408 15.1759H5.34531L1.0663 6.59243L1.569 6.56815V15.1759H0.0241385V6.07038H2.50081L6.62043 14.4839H5.81122L9.91858 6.07038H12.3953Z" fill="black"/>
<path d="M16.5855 15.1759L18.0935 12.6264H18.1181L21.9679 6.07038H23.7335L18.351 15.1759H16.5855ZM18.1303 13.7676L13.5693 6.07038H15.3594L19.2093 12.5657L18.1303 13.7676Z" fill="black"/>
<path d="M33.8935 6.07038V15.1759H32.2873V6.7624L33.0229 7.49084H25.7278L26.4634 6.7624V15.1759H24.845V6.07038H33.8935Z" fill="black"/>
<path fill-rule="evenodd" clip-rule="evenodd" d="M68.9641 25.4956H60.0559V22.1948H75.9483C76.2896 22.5352 76.5594 22.8546 76.7257 23.0786L76.7665 25.4956H72.7573V43.536H68.9641V25.4956Z" fill="white"/>
<path d="M81.6655 25.4956V22.1948H75.9483C76.2896 22.5352 76.5594 22.8546 76.7257 23.0786L76.7665 25.4956H81.6655Z" fill="black"/>
</svg>
