<svg width="21" height="21" viewBox="0 0 21 21" fill="none" xmlns="http://www.w3.org/2000/svg">
<g clip-path="url(#clip0_2316_917)">
<path d="M10.1621 0.287777C4.11265 0.603877 0.119355 5.34828 0.371655 11.331C0.481855 13.9497 1.53455 16.203 1.78395 18.6883C1.84775 19.3321 1.66215 20.1267 2.40455 20.408C3.31805 20.7531 4.71875 20.1731 5.48435 19.6424C5.74535 19.4655 5.99475 19.2596 6.18615 19.0044C6.97785 19.5293 7.72895 20.0368 8.67145 20.263C12.8214 21.2577 17.3686 18.9812 19.3899 15.3243C23.1889 8.45418 18.053 -0.124023 10.1621 0.287777ZM7.81305 14.6254C7.48535 14.8806 7.16925 15.2286 6.80675 15.4287C6.28185 15.71 6.11945 15.4171 5.92225 14.9531C5.30165 13.477 5.22625 10.9627 5.58875 9.41698C6.07595 7.31448 7.70286 5.46428 9.93876 5.26708C12.2008 5.06698 14.3004 6.21538 15.2487 8.28888C17.3483 12.9028 11.9746 17.4587 7.81305 14.6283V14.6254Z" fill="white"/>
</g>
<defs>
<clipPath id="clip0_2316_917">
<rect width="20.88" height="20.88" fill="white"/>
</clipPath>
</defs>
</svg>
