<svg width="26" height="24" viewBox="0 0 26 24" fill="none" xmlns="http://www.w3.org/2000/svg">
<path d="M17.5996 15.2868L16.9612 15.9216C16.9612 15.9216 15.4437 17.4304 11.3018 13.312C7.15988 9.19355 8.6773 7.68474 8.6773 7.68474L9.07932 7.285C10.0697 6.30027 10.163 4.71929 9.299 3.56512L7.53151 1.20414C6.46208 -0.224384 4.39557 -0.413092 3.1698 0.805718L0.969742 2.99328C0.361951 3.59762 -0.0453415 4.38104 0.00404741 5.25009C0.130404 7.47343 1.13635 12.2571 6.74953 17.8384C12.7021 23.7572 18.2873 23.9924 20.5712 23.7795C21.2937 23.7121 21.922 23.3442 22.4282 22.8408L24.4194 20.861C25.7634 19.5245 25.3845 17.2334 23.6648 16.2986L20.9869 14.8428C19.8578 14.229 18.4821 14.4093 17.5996 15.2868Z" fill="#3F3F3F"/>
</svg>
