<svg viewBox="0 0 31 31" fill="none" xmlns="http://www.w3.org/2000/svg">
<path fill-rule="evenodd" clip-rule="evenodd" d="M23.4715 17.7625C21.019 17.7625 19.0309 19.6128 19.0309 21.8952C19.0309 24.1598 20.4482 26.8023 22.6594 27.7473C23.1749 27.9676 23.768 27.9676 24.2835 27.7473C26.4948 26.8023 27.9121 24.1598 27.9121 21.8952C27.9121 19.6128 25.924 17.7625 23.4715 17.7625ZM23.4715 23.4719C24.1722 23.4719 24.7402 22.9038 24.7402 22.2031C24.7402 21.5024 24.1722 20.9344 23.4715 20.9344C22.7708 20.9344 22.2027 21.5024 22.2027 22.2031C22.2027 22.9038 22.7708 23.4719 23.4715 23.4719Z"/>
<path fill-rule="evenodd" clip-rule="evenodd" d="M6.97773 2.53748C4.52525 2.53748 2.53711 4.38776 2.53711 6.6702C2.53711 8.93475 3.9544 11.5773 6.16569 12.5223C6.68118 12.7425 7.27429 12.7425 7.78978 12.5223C10.0011 11.5773 11.4184 8.93475 11.4184 6.6702C11.4184 4.38776 9.43022 2.53748 6.97773 2.53748ZM6.97773 8.24685C7.67845 8.24685 8.24648 7.67881 8.24648 6.9781C8.24648 6.27739 7.67845 5.70935 6.97773 5.70935C6.27702 5.70935 5.70898 6.27739 5.70898 6.9781C5.70898 7.67881 6.27702 8.24685 6.97773 8.24685Z"/>
<path fill-rule="evenodd" clip-rule="evenodd" d="M14.2734 6.34377C14.2734 5.81824 14.6994 5.39221 15.225 5.39221H20.4673C23.9579 5.39221 25.2854 9.95083 22.3405 11.8249L9.13118 20.2308C7.79258 21.0826 8.39599 23.1547 9.98263 23.1547H12.9277L12.649 22.876C12.2774 22.5044 12.2774 21.9019 12.649 21.5303C13.0206 21.1587 13.6231 21.1587 13.9947 21.5303L15.8978 23.4334C16.2694 23.805 16.2694 24.4075 15.8978 24.7791L13.9947 26.6823C13.6231 27.0539 13.0206 27.0539 12.649 26.6823C12.2774 26.3107 12.2774 25.7082 12.649 25.3365L12.9277 25.0578H9.98263C6.49199 25.0578 5.16455 20.4992 8.10944 18.6252L21.3187 10.2193C22.6573 9.36744 22.0539 7.29534 20.4673 7.29534H15.225C14.6994 7.29534 14.2734 6.86931 14.2734 6.34377Z"/>
</svg>
