<svg width="31" height="31" viewBox="0 0 31 31" fill="none" xmlns="http://www.w3.org/2000/svg">
<path fill-rule="evenodd" clip-rule="evenodd" d="M3.80664 13.2162C3.80664 9.15923 3.80664 7.13076 4.28561 6.44834C4.76459 5.76592 6.67189 5.11304 10.4865 3.80729L11.2133 3.55852C13.2017 2.87786 14.1959 2.53754 15.2254 2.53754C16.2548 2.53754 17.2491 2.87786 19.2375 3.55852L19.9643 3.80729C23.7789 5.11304 25.6862 5.76592 26.1652 6.44834C26.6441 7.13076 26.6441 9.15923 26.6441 13.2162V15.2141C26.6441 22.3674 21.266 25.8388 17.8916 27.3128C16.9762 27.7126 16.5186 27.9125 15.2254 27.9125C13.9322 27.9125 13.4745 27.7126 12.5592 27.3128C9.18482 25.8387 3.80664 22.3674 3.80664 15.2141V13.2162ZM15.2254 9.19847C15.7509 9.19847 16.177 9.6245 16.177 10.15V15.225C16.177 15.7506 15.7509 16.1766 15.2254 16.1766C14.6999 16.1766 14.2738 15.7506 14.2738 15.225V10.15C14.2738 9.6245 14.6999 9.19847 15.2254 9.19847ZM15.2254 20.3C15.9261 20.3 16.4941 19.732 16.4941 19.0313C16.4941 18.3306 15.9261 17.7625 15.2254 17.7625C14.5247 17.7625 13.9566 18.3306 13.9566 19.0313C13.9566 19.732 14.5247 20.3 15.2254 20.3Z" fill="#3F3F3F"/>
</svg>
