<svg viewBox="0 0 26 26" fill="none" xmlns="http://www.w3.org/2000/svg">
<path fill-rule="evenodd" clip-rule="evenodd" d="M1.84742 1.84742C0.48468 3.21017 0.127158 5.18557 0.0333606 8.51513L25.1966 8.51513C25.1028 5.18557 24.7453 3.21017 23.3826 1.84742C21.5352 0 18.5618 0 12.615 0C6.66823 0 3.69485 0 1.84742 1.84742ZM0 12.615C0 11.8285 7.3429e-09 11.0941 0.00427312 10.4074H7.88438L7.88438 23.9685V25.1749C4.93199 25.0523 3.12181 24.657 1.84742 23.3826C0 21.5352 0 18.5618 0 12.615ZM5.046 6.3075C5.74271 6.3075 6.3075 5.74271 6.3075 5.046C6.3075 4.34929 5.74271 3.7845 5.046 3.7845C4.34929 3.7845 3.7845 4.34929 3.7845 5.046C3.7845 5.74271 4.34929 6.3075 5.046 6.3075ZM10.092 5.046C10.092 5.74271 9.52721 6.3075 8.8305 6.3075C8.13379 6.3075 7.569 5.74271 7.569 5.046C7.569 4.34929 8.13379 3.7845 8.8305 3.7845C9.52721 3.7845 10.092 4.34929 10.092 5.046ZM12.615 6.3075C13.3117 6.3075 13.8765 5.74271 13.8765 5.046C13.8765 4.34929 13.3117 3.7845 12.615 3.7845C11.9183 3.7845 11.3535 4.34929 11.3535 5.046C11.3535 5.74271 11.9183 6.3075 12.615 6.3075Z"/>
<path d="M25.23 12.615C25.23 18.5618 25.23 21.5352 23.3826 23.3826C21.5352 25.23 18.5618 25.23 12.615 25.23C11.5825 25.23 10.6396 25.23 9.77662 25.2203L9.77662 23.9685L9.77663 10.4074L25.2257 10.4074C25.23 11.0941 25.23 11.8285 25.23 12.615Z"/>
</svg>
