<svg width="31" height="31" viewBox="0 0 31 31" fill="none" xmlns="http://www.w3.org/2000/svg">
<path d="M15.225 12.6875C18.0278 12.6875 20.3 10.4154 20.3 7.61254C20.3 4.80969 18.0278 2.53754 15.225 2.53754C12.4222 2.53754 10.15 4.80969 10.15 7.61254C10.15 10.4154 12.4222 12.6875 15.225 12.6875Z" fill="#3F3F3F"/>
<path d="M3.46088 7.38166C3.33342 6.87182 2.81678 6.56184 2.30694 6.6893C1.79709 6.81676 1.48711 7.3334 1.61457 7.84324L2.09919 9.78172C2.99336 13.3584 5.70435 16.176 9.19866 17.228L9.19866 22.9034C9.19862 24.0434 9.19859 24.9939 9.30005 25.7486C9.40714 26.5451 9.64271 27.2642 10.2206 27.8421C10.7985 28.42 11.5176 28.6555 12.3141 28.7626C13.0687 28.8641 14.0193 28.8641 15.1593 28.864H15.2912C16.4311 28.8641 17.3817 28.8641 18.1363 28.7626C18.9329 28.6555 19.652 28.42 20.2299 27.8421C20.8077 27.2642 21.0433 26.5451 21.1504 25.7486C21.2519 24.994 21.2518 24.0434 21.2518 22.9035L21.2518 17.5836C22.4966 17.9547 23.4475 19.0362 23.6061 20.3851L24.4302 27.3893C24.4916 27.9112 24.9645 28.2845 25.4864 28.2231C26.0083 28.1617 26.3817 27.6888 26.3203 27.1669L25.4962 20.1627C25.1863 17.5279 22.9532 15.5421 20.3002 15.5421H10.2575C7.15734 14.8144 4.7192 12.415 3.9455 9.32014L3.46088 7.38166Z" fill="#3F3F3F"/>
</svg>
